<?xml version="1.0" encoding="UTF-8" standalone="yes"?>
<!DOCTYPE svg PUBLIC "-//W3C//DTD SVG 1.0//EN" "http://www.w3.org/TR/2001/REC-SVG-20010904/DTD/svg10.dtd">
<svg height="1500" width="1250" xmlns="http://www.w3.org/2000/svg" xmlns:svg="http://www.w3.org/2000/svg" xmlns:xlink="http://www.w3.org/1999/xlink">
	<line stroke="rgb(127,127,127)" stroke_width="1" x1="25" x2="25" y1="0" y2="1500" />	<text font-size="9" x="26" y="12">2010
	</text>
	<line stroke="rgb(127,127,127)" stroke_width="1" x1="75" x2="75" y1="0" y2="1500" />	<text font-size="9" x="76" y="12">2000
	</text>
	<line stroke="rgb(127,127,127)" stroke_width="1" x1="125" x2="125" y1="0" y2="1500" />	<text font-size="9" x="126" y="12">1990
	</text>
	<line stroke="rgb(127,127,127)" stroke_width="1" x1="175" x2="175" y1="0" y2="1500" />	<text font-size="9" x="176" y="12">1980
	</text>
	<line stroke="rgb(127,127,127)" stroke_width="1" x1="225" x2="225" y1="0" y2="1500" />	<text font-size="9" x="226" y="12">1970
	</text>
	<line stroke="rgb(127,127,127)" stroke_width="1" x1="275" x2="275" y1="0" y2="1500" />	<text font-size="9" x="276" y="12">1960
	</text>
	<line stroke="rgb(127,127,127)" stroke_width="1" x1="325" x2="325" y1="0" y2="1500" />	<text font-size="9" x="326" y="12">1950
	</text>
	<line stroke="rgb(127,127,127)" stroke_width="1" x1="375" x2="375" y1="0" y2="1500" />	<text font-size="9" x="376" y="12">1940
	</text>
	<line stroke="rgb(127,127,127)" stroke_width="1" x1="425" x2="425" y1="0" y2="1500" />	<text font-size="9" x="426" y="12">1930
	</text>
	<line stroke="rgb(127,127,127)" stroke_width="1" x1="475" x2="475" y1="0" y2="1500" />	<text font-size="9" x="476" y="12">1920
	</text>
	<line stroke="rgb(127,127,127)" stroke_width="1" x1="525" x2="525" y1="0" y2="1500" />	<text font-size="9" x="526" y="12">1910
	</text>
	<line stroke="rgb(127,127,127)" stroke_width="1" x1="575" x2="575" y1="0" y2="1500" />	<text font-size="9" x="576" y="12">1900
	</text>
	<line stroke="rgb(127,127,127)" stroke_width="1" x1="625" x2="625" y1="0" y2="1500" />	<text font-size="9" x="626" y="12">1890
	</text>
	<line stroke="rgb(127,127,127)" stroke_width="1" x1="675" x2="675" y1="0" y2="1500" />	<text font-size="9" x="676" y="12">1880
	</text>
	<line stroke="rgb(127,127,127)" stroke_width="1" x1="725" x2="725" y1="0" y2="1500" />	<text font-size="9" x="726" y="12">1870
	</text>
	<line stroke="rgb(127,127,127)" stroke_width="1" x1="775" x2="775" y1="0" y2="1500" />	<text font-size="9" x="776" y="12">1860
	</text>
	<line stroke="rgb(127,127,127)" stroke_width="1" x1="825" x2="825" y1="0" y2="1500" />	<text font-size="9" x="826" y="12">1850
	</text>
	<line stroke="rgb(127,127,127)" stroke_width="1" x1="875" x2="875" y1="0" y2="1500" />	<text font-size="9" x="876" y="12">1840
	</text>
	<line stroke="rgb(127,127,127)" stroke_width="1" x1="925" x2="925" y1="0" y2="1500" />	<text font-size="9" x="926" y="12">1830
	</text>
	<line stroke="rgb(127,127,127)" stroke_width="1" x1="975" x2="975" y1="0" y2="1500" />	<text font-size="9" x="976" y="12">1820
	</text>
	<line stroke="rgb(127,127,127)" stroke_width="1" x1="1025" x2="1025" y1="0" y2="1500" />	<text font-size="9" x="1026" y="12">1810
	</text>
	<line stroke="rgb(127,127,127)" stroke_width="1" x1="1075" x2="1075" y1="0" y2="1500" />	<text font-size="9" x="1076" y="12">1800
	</text>
	<line stroke="rgb(127,127,127)" stroke_width="1" x1="1125" x2="1125" y1="0" y2="1500" />	<text font-size="9" x="1126" y="12">1790
	</text>
	<line stroke="rgb(127,127,127)" stroke_width="1" x1="1175" x2="1175" y1="0" y2="1500" />	<text font-size="9" x="1176" y="12">1780
	</text>
	<line stroke="rgb(127,127,127)" stroke_width="1" x1="1225" x2="1225" y1="0" y2="1500" />	<text font-size="9" x="1226" y="12">1770
	</text>
	<rect fill="rgb(255,127,127)" height="18" stroke="rgb(0,0,0)" stroke-width="1" width="10" x="0" y="741" />	<text font-size="14" x="5" y="755">1: Prince George (2013 - )
	</text>
	<rect fill="rgb(127,255,127)" height="18" stroke="rgb(0,0,0)" stroke-width="1" width="165" x="0" y="366" />	<text font-size="14" x="5" y="380">2: Prince William (1982 - )
	</text>
	<rect fill="rgb(127,255,127)" height="18" stroke="rgb(0,0,0)" stroke-width="1" width="165" x="0" y="1116" />	<text font-size="14" x="5" y="1130">3: Catherine Middleton (1982 - )
	</text>
	<rect fill="rgb(127,127,255)" height="18" stroke="rgb(0,0,0)" stroke-width="1" width="335" x="0" y="178.5" />	<text font-size="14" x="5" y="192.5">4: Prince Charles (1948 - )
	</text>
	<rect fill="rgb(127,127,255)" height="18" stroke="rgb(0,0,0)" stroke-width="1" width="180" x="90" y="553.5" />	<text font-size="14" x="95" y="567.5">5: Diana Spencer (1961 - 1997)
	</text>
	<rect fill="rgb(127,127,255)" height="18" stroke="rgb(0,0,0)" stroke-width="1" width="330" x="0" y="928.5" />	<text font-size="14" x="5" y="942.5">6: Michael Middleton (1949 - )
	</text>
	<rect fill="rgb(127,127,255)" height="18" stroke="rgb(0,0,0)" stroke-width="1" width="300" x="0" y="1303.5" />	<text font-size="14" x="5" y="1317.5">7: Carole Goldsmith (1955 - )
	</text>
	<rect fill="rgb(255,255,127)" height="18" stroke="rgb(0,0,0)" stroke-width="1" width="470" x="0" y="84.75" />	<text font-size="14" x="5" y="98.75">8: Prince Philip (1921 - )
	</text>
	<rect fill="rgb(255,255,127)" height="18" stroke="rgb(0,0,0)" stroke-width="1" width="445" x="0" y="272.25" />	<text font-size="14" x="5" y="286.25">9: Queen Elizabeth II (1926 - )
	</text>
	<rect fill="rgb(255,255,127)" height="18" stroke="rgb(0,0,0)" stroke-width="1" width="340" x="115" y="459.75" />	<text font-size="14" x="120" y="473.75">10: John Spencer (1924 - 1992)
	</text>
	<rect fill="rgb(255,255,127)" height="18" stroke="rgb(0,0,0)" stroke-width="1" width="340" x="55" y="647.25" />	<text font-size="14" x="60" y="661.25">11: Frances Shand Kydd (1936 - 2004)
	</text>
	<rect fill="rgb(255,255,127)" height="18" stroke="rgb(0,0,0)" stroke-width="1" width="475" x="0" y="834.75" />	<text font-size="14" x="5" y="848.75">12: Peter Middleton (1920 - )
	</text>
	<rect fill="rgb(255,255,127)" height="18" stroke="rgb(0,0,0)" stroke-width="1" width="380" x="75" y="1022.25" />	<text font-size="14" x="80" y="1036.25">13: Valerie Glassborrow (1924 - 2000)
	</text>
	<rect fill="rgb(255,255,127)" height="18" stroke="rgb(0,0,0)" stroke-width="1" width="360" x="60" y="1209.75" />	<text font-size="14" x="65" y="1223.75">14: Ronald Goldsmith (1931 - 2003)
	</text>
	<rect fill="rgb(255,255,127)" height="18" stroke="rgb(0,0,0)" stroke-width="1" width="355" x="45" y="1397.25" />	<text font-size="14" x="50" y="1411.25">15: Dorothy Harrison (1935 - 2006)
	</text>
	<rect fill="rgb(255,127,255)" height="18" stroke="rgb(0,0,0)" stroke-width="1" width="310" x="355" y="37.875" />	<text font-size="14" x="360" y="51.875">16: Prince Andrew of Greece (1882 - 1944)
	</text>
	<rect fill="rgb(255,127,255)" height="18" stroke="rgb(0,0,0)" stroke-width="1" width="420" x="230" y="131.625" />	<text font-size="14" x="235" y="145.625">17: Princess Alice of Battenberg (1885 - 1969)
	</text>
	<rect fill="rgb(255,127,255)" height="18" stroke="rgb(0,0,0)" stroke-width="1" width="285" x="315" y="225.375" />	<text font-size="14" x="320" y="239.375">18: King George VI (1895 - 1952)
	</text>
	<rect fill="rgb(255,127,255)" height="18" stroke="rgb(0,0,0)" stroke-width="1" width="510" x="65" y="319.125" />	<text font-size="14" x="70" y="333.125">19: Elizabeth Bowes Lyon (1900 - 2002)
	</text>
	<rect fill="rgb(255,127,255)" height="18" stroke="rgb(0,0,0)" stroke-width="1" width="315" x="520" y="412.875" />	<text font-size="14" x="525" y="426.875">20: Isaac Clarke (1848 - 1911)
	</text>
	<rect fill="rgb(255,127,255)" height="18" stroke="rgb(0,0,0)" stroke-width="1" width="335" x="425" y="506.625" />	<text font-size="14" x="430" y="520.625">21: Maria Newman (1863 - 1930)
	</text>
	<rect fill="rgb(255,127,255)" height="18" stroke="rgb(0,0,0)" stroke-width="1" width="305" x="425" y="694.125" />	<text font-size="14" x="430" y="708.125">23: Louisa Hammond (1869 - 1930)
	</text>
	<rect fill="rgb(255,127,255)" height="18" stroke="rgb(0,0,0)" stroke-width="1" width="365" x="320" y="787.875" />	<text font-size="14" x="325" y="801.875">24: Richard Middleton (1878 - 1951)
	</text>
	<rect fill="rgb(255,127,255)" height="18" stroke="rgb(0,0,0)" stroke-width="1" width="275" x="395" y="881.625" />	<text font-size="14" x="400" y="895.625">25: Olive Lupton (1881 - 1936)
	</text>
	<rect fill="rgb(255,127,255)" height="18" stroke="rgb(0,0,0)" stroke-width="1" width="135" x="570" y="1162.875" />	<text font-size="14" x="575" y="1176.875">28: Robert Sowman (1874 - 1901)
	</text>
	<rect fill="rgb(255,127,255)" height="18" stroke="rgb(0,0,0)" stroke-width="1" width="235" x="460" y="1256.625" />	<text font-size="14" x="465" y="1270.625">29: Harriet Gant (1876 - 1923)
	</text>
	<rect fill="rgb(255,127,255)" height="18" stroke="rgb(0,0,0)" stroke-width="1" width="355" x="380" y="1350.375" />	<text font-size="14" x="385" y="1364.375">30: Albert Turpin (1868 - 1939)
	</text>
	<rect fill="rgb(255,127,255)" height="18" stroke="rgb(0,0,0)" stroke-width="1" width="420" x="300" y="1444.125" />	<text font-size="14" x="305" y="1458.125">31: Mary Maud Hyam (1871 - 1955)
	</text>
	<rect fill="rgb(127,255,255)" height="18" stroke="rgb(0,0,0)" stroke-width="1" width="310" x="695" y="14.4375" />	<text font-size="14" x="700" y="28.4375">32: Thomas Cross (1814 - 1876)
	</text>
	<rect fill="rgb(127,255,255)" height="18" stroke="rgb(0,0,0)" stroke-width="1" width="285" x="710" y="61.3125" />	<text font-size="14" x="715" y="75.3125">33: Lucy Curtis (1816 - 1873)
	</text>
	<rect fill="rgb(127,255,255)" height="18" stroke="rgb(0,0,0)" stroke-width="1" width="305" x="705" y="108.1875" />	<text font-size="14" x="710" y="122.1875">34: William Turpin (1813 - 1874)
	</text>
	<rect fill="rgb(127,255,255)" height="18" stroke="rgb(0,0,0)" stroke-width="1" width="410" x="600" y="155.0625" />	<text font-size="14" x="605" y="169.0625">35: Sarah Clements (1813 - 1895)
	</text>
	<rect fill="rgb(127,255,255)" height="18" stroke="rgb(0,0,0)" stroke-width="1" width="375" x="630" y="201.9375" />	<text font-size="14" x="635" y="215.9375">36: William Hazleton (1814 - 1889)
	</text>
	<rect fill="rgb(127,255,255)" height="18" stroke="rgb(0,0,0)" stroke-width="1" width="370" x="615" y="248.8125" />	<text font-size="14" x="620" y="262.8125">37: Elizabeth Frances (1818 - 1892)
	</text>
	<rect fill="rgb(127,255,255)" height="18" stroke="rgb(0,0,0)" stroke-width="1" width="380" x="625" y="295.6875" />	<text font-size="14" x="630" y="309.6875">38: Samuel Morris (1814 - 1890)
	</text>
	<rect fill="rgb(127,255,255)" height="18" stroke="rgb(0,0,0)" stroke-width="1" width="390" x="610" y="342.5625" />	<text font-size="14" x="615" y="356.5625">39: Susan Harbridge (1815 - 1893)
	</text>
	<rect fill="rgb(127,255,255)" height="18" stroke="rgb(0,0,0)" stroke-width="1" width="330" x="675" y="389.4375" />	<text font-size="14" x="680" y="403.4375">40: George Clarke (1814 - 1880)
	</text>
	<rect fill="rgb(127,255,255)" height="18" stroke="rgb(0,0,0)" stroke-width="1" width="330" x="675" y="436.3125" />	<text font-size="14" x="680" y="450.3125">41: Emily Lewis (1814 - 1880)
	</text>
	<rect fill="rgb(127,255,255)" height="18" stroke="rgb(0,0,0)" stroke-width="1" width="290" x="620" y="530.0625" />	<text font-size="14" x="625" y="544.0625">43: Esther Newman (1833 - 1891)
	</text>
	<rect fill="rgb(127,255,255)" height="18" stroke="rgb(0,0,0)" stroke-width="1" width="340" x="520" y="670.6875" />	<text font-size="14" x="525" y="684.6875">46: William Hammond (1843 - 1911 )
	</text>
	<rect fill="rgb(127,255,255)" height="18" stroke="rgb(0,0,0)" stroke-width="1" width="335" x="540" y="717.5625" />	<text font-size="14" x="545" y="731.5625">47: Sarah Dew (1840 - 1907)
	</text>
	<rect fill="rgb(127,255,255)" height="18" stroke="rgb(0,0,0)" stroke-width="1" width="365" x="470" y="858.1875" />	<text font-size="14" x="475" y="872.1875">50: Francis Lupton (1848 - 1921)
	</text>
	<rect fill="rgb(127,255,255)" height="18" stroke="rgb(0,0,0)" stroke-width="1" width="210" x="615" y="905.0625" />	<text font-size="14" x="620" y="919.0625">51: Harriet Davis (1850 - 1892)
	</text>
	<rect fill="rgb(127,255,255)" height="18" stroke="rgb(0,0,0)" stroke-width="1" width="300" x="550" y="1186.3125" />	<text font-size="14" x="555" y="1200.3125">57: Sarah A Sowman (1845 - 1905)
	</text>
	<rect fill="rgb(127,255,255)" height="18" stroke="rgb(0,0,0)" stroke-width="1" width="325" x="495" y="1233.1875" />	<text font-size="14" x="500" y="1247.1875">58: William Gant (1851 - 1916)
	</text>
	<rect fill="rgb(127,255,255)" height="18" stroke="rgb(0,0,0)" stroke-width="1" width="195" x="610" y="1280.0625" />	<text font-size="14" x="615" y="1294.0625">59: Emily Sowman (1854 - 1893)
	</text>
	<rect fill="rgb(127,255,255)" height="18" stroke="rgb(0,0,0)" stroke-width="1" width="335" x="570" y="1326.9375" />	<text font-size="14" x="575" y="1340.9375">60: William Turpin (1834 - 1901 )
	</text>
	<rect fill="rgb(127,255,255)" height="18" stroke="rgb(0,0,0)" stroke-width="1" width="330" x="570" y="1373.8125" />	<text font-size="14" x="575" y="1387.8125">61: Caroline Rush (1835 - 1901 )
	</text>
	<rect fill="rgb(127,255,255)" height="18" stroke="rgb(0,0,0)" stroke-width="1" width="335" x="535" y="1420.6875" />	<text font-size="14" x="540" y="1434.6875">62: Walter Hyam (1841 - 1908)
	</text>
	<rect fill="rgb(127,255,255)" height="18" stroke="rgb(0,0,0)" stroke-width="1" width="345" x="485" y="1467.5625" />	<text font-size="14" x="490" y="1481.5625">63: Emma Gazzard (1849 - 1918)
	</text><!-- 
	Generated using the Perl SVG Module V2.49
	by Ronan Oger
	Info: http://www.roitsystems.com/
 -->
</svg>